<?xml version="1.0" encoding="UTF-8"?>
<svg width="448px" height="448px" viewBox="0 0 448 448" version="1.1" xmlns="http://www.w3.org/2000/svg" xmlns:xlink="http://www.w3.org/1999/xlink">
    <!-- Generator: Sketch 57.1 (83088) - https://sketch.com -->
    <title>Combined Shape</title>
    <desc>Created with Sketch.</desc>
    <defs>
        <radialGradient cx="50%" cy="53.1006557%" fx="50%" fy="53.1006557%" r="69.2608343%" id="radialGradient-1">
            <stop stop-color="#F79534" offset="0%"></stop>
            <stop stop-color="#70261B" offset="100%"></stop>
        </radialGradient>
        <linearGradient x1="19.1271963%" y1="72.2648446%" x2="77.6018105%" y2="26.9539104%" id="linearGradient-2">
            <stop stop-color="#F79534" offset="0%"></stop>
            <stop stop-color="#F0513A" offset="100%"></stop>
        </linearGradient>
        <linearGradient x1="91.3942066%" y1="29.7945599%" x2="6.97214116%" y2="67.4609092%" id="linearGradient-3">
            <stop stop-color="#FFFEFE" offset="0%"></stop>
            <stop stop-color="#3E4889" offset="100%"></stop>
        </linearGradient>
        <linearGradient x1="23.6906543%" y1="-2.38334827%" x2="65.9840417%" y2="83.9925022%" id="linearGradient-4">
            <stop stop-color="#F79534" offset="0%"></stop>
            <stop stop-color="#F0513A" offset="100%"></stop>
        </linearGradient>
        <linearGradient x1="13.0423257%" y1="-2.38334827%" x2="72.4533523%" y2="83.9925022%" id="linearGradient-5">
            <stop stop-color="#F79534" offset="0%"></stop>
            <stop stop-color="#F0513A" offset="100%"></stop>
        </linearGradient>
        <linearGradient x1="-80.6701559%" y1="40.2617064%" x2="135.616424%" y2="58.4616143%" id="linearGradient-6">
            <stop stop-color="#F79534" offset="0%"></stop>
            <stop stop-color="#F0513A" offset="100%"></stop>
        </linearGradient>
        <linearGradient x1="-19.7509782%" y1="25.952377%" x2="95.7015553%" y2="70.8950067%" id="linearGradient-7">
            <stop stop-color="#F79534" offset="0%"></stop>
            <stop stop-color="#F0513A" offset="100%"></stop>
        </linearGradient>
        <linearGradient x1="45.7160649%" y1="27.8298017%" x2="51.5687165%" y2="50%" id="linearGradient-8">
            <stop stop-color="#FFFFFF" offset="0%"></stop>
            <stop stop-color="#F0513A" offset="100%"></stop>
        </linearGradient>
        <linearGradient x1="36.9500551%" y1="27.8298017%" x2="54.7787054%" y2="50%" id="linearGradient-9">
            <stop stop-color="#FFFFFF" offset="0%"></stop>
            <stop stop-color="#F0513A" offset="100%"></stop>
        </linearGradient>
    </defs>
    <g id="Page-1" stroke="none" stroke-width="1" fill="none" fill-rule="evenodd">
        <path d="M317,391 L317,419 L316.950831,419.000579 C316.983439,419.496175 317,419.996153 317,420.5 L317,425.5 C317,437.926407 306.926407,448 294.5,448 C282.073593,448 272,437.926407 272,425.5 L272,420.5 C272,419.996153 272.016561,419.496175 272.049169,419.000579 L272,419 L272,391 L317,391 Z M177,391 L177,419 L176.950831,419.000579 C176.983439,419.496175 177,419.996153 177,420.5 L177,425.5 C177,437.926407 166.926407,448 154.5,448 C142.073593,448 132,437.926407 132,425.5 L132,420.5 C132,419.996153 132.016561,419.496175 132.049169,419.000579 L132,419 L132,391 L177,391 Z M247,391 L247,419 L246.950831,419.000579 C246.983439,419.496175 247,419.996153 247,420.5 L247,425.5 C247,437.926407 236.926407,448 224.5,448 C212.073593,448 202,437.926407 202,425.5 L202,420.5 C202,419.996153 202.016561,419.496175 202.049169,419.000579 L202,419 L202,391 L247,391 Z M343,79 C357.359403,79 369,90.6405965 369,105 L369,345 C369,359.359403 357.359403,371 343,371 L334,371 L334,309 L314.25,284.233127 L314.2508,256.895254 C325.809467,252.391437 334,241.152219 334,228 C334,210.879173 320.120827,197 303,197 C285.879173,197 272,210.879173 272,228 C272,242.173495 281.511916,254.125363 294.500474,257.820331 L294.5,294.780342 L317,318.908544 L317,371 L103,371 C88.6405965,371 77,359.359403 77,345 L77,336.646 L148,336.646807 L170.238377,319.939742 L211.9856,319.940066 C216.407806,331.6624 227.730228,340 241,340 C258.120827,340 272,326.120827 272,309 C272,291.879173 258.120827,278 241,278 C226.557719,278 214.422126,287.876104 210.978405,301.243129 L170.238377,301.243136 L148,319.939742 L77,319.939 L77,269 L206.797734,269 L247,230 L247,205.219614 L275.886436,174 L324.091807,174 L334,164.982455 L334,79 L343,79 Z M27.5,269 C28.0038467,269 28.5038253,269.016561 28.9994211,269.049169 L29,269 L57,269 L57,314 L29,314 L28.9994211,313.950831 C28.5038253,313.983439 28.0038467,314 27.5,314 L22.5,314 C10.0735931,314 7.10542736e-15,303.926407 0,291.5 C0,279.073593 10.0735931,269 22.5,269 L27.5,269 Z M419,267 L419.000579,267.049169 C419.496175,267.016561 419.996153,267 420.5,267 L425.5,267 C437.926407,267 448,277.073593 448,289.5 C448,301.926407 437.926407,312 425.5,312 L420.5,312 C419.996153,312 419.496175,311.983439 419.000579,311.950831 L419,312 L391,312 L391,267 L419,267 Z M247,78.999 L247,119.5 L192.550088,171.110358 C188.456571,169.117833 183.858827,168 179,168 C161.879173,168 148,181.879173 148,199 C148,216.120827 161.879173,230 179,230 C196.120827,230 210,216.120827 210,199 C210,193.062547 208.330777,187.514963 205.436007,182.800923 L263.98027,123.787978 L263.98,79 L317,79 L317,159 L272,159 L232.939297,197 L232.939297,224 L203.797464,253.299012 L77,253.299 L77,198 L118.5,198 C118.885432,198 119.264074,197.970926 119.633771,197.914936 L120.000406,197.850055 C120.484945,197.948383 120.986445,198 121.5,198 C125.560917,198 128.868018,194.772526 128.996146,190.742731 L129,190.5 L129,134.5 L187,134.5 C187.953188,134.5 188.864844,134.322184 189.70374,133.997286 C193.669076,133.891531 196.867083,130.70799 196.995962,126.74846 L197,126.5 L197,81.5 C197,80.6233635 196.849598,79.7818552 196.57319,78.9998716 L247,78.999 Z M27.5,199 C28.0038467,199 28.5038253,199.016561 28.9994211,199.049169 L29,199 L57,199 L57,244 L29,244 L28.9994211,243.950831 C28.5038253,243.983439 28.0038467,244 27.5,244 L22.5,244 C10.0735931,244 0,233.926407 0,221.5 C0,209.073593 10.0735931,199 22.5,199 L27.5,199 Z M419,197 L419.000579,197.049169 C419.496175,197.016561 419.996153,197 420.5,197 L425.5,197 C437.926407,197 448,207.073593 448,219.5 C448,231.926407 437.926407,242 425.5,242 L420.5,242 C419.996153,242 419.496175,241.983439 419.000579,241.950831 L419,242 L391,242 L391,197 L419,197 Z M182.42681,78.9998716 C182.184953,79.6841072 182.039569,80.4139165 182.007002,81.1729556 L182,81.5 L182,119.5 L124,119.5 C123.046812,119.5 122.135156,119.677816 121.296099,120.002718 C117.330837,120.108555 114.132914,123.292066 114.004038,127.251543 L114,127.5 L114,183 L77,183 L77,105 C77,90.7841905 88.4089486,79.2330838 102.570042,79.0034833 L103,79 L182.42681,78.9998716 Z M27.5,129 C28.0038467,129 28.5038253,129.016561 28.9994211,129.049169 L29,129 L57,129 L57,174 L29,174 L28.9994211,173.950831 C28.5038253,173.983439 28.0038467,174 27.5,174 L22.5,174 C10.0735931,174 -7.10542736e-15,163.926407 -7.10542736e-15,151.5 C-7.10542736e-15,139.073593 10.0735931,129 22.5,129 L27.5,129 Z M419,127 L419.000579,127.049169 C419.496175,127.016561 419.996153,127 420.5,127 L425.5,127 C437.926407,127 448,137.073593 448,149.5 C448,161.926407 437.926407,172 425.5,172 L420.5,172 C419.996153,172 419.496175,171.983439 419.000579,171.950831 L419,172 L391,172 L391,127 L419,127 Z M294.5,0 C306.802143,0 316.798293,9.87312863 316.996986,22.1279214 L317,22.5 L317,27.5 C317,27.8358978 316.992639,28.1700764 316.978071,28.5023834 L316.950831,28.9994211 L317,29 L317,57 L272,57 L272,29 L272.049169,28.9994211 C272.02743,28.6690239 272.012824,28.3366788 272.005501,28.0025382 L272,27.5 L272,22.5 C272,10.0735931 282.073593,0 294.5,0 Z M154.5,0 C166.802143,0 176.798293,9.87312863 176.996986,22.1279214 L177,22.5 L177,27.5 C177,27.8358978 176.992639,28.1700764 176.978071,28.5023834 L176.950831,28.9994211 L177,29 L177,57 L132,57 L132,29 L132.049169,28.9994211 C132.02743,28.6690239 132.012824,28.3366788 132.005501,28.0025382 L132,27.5 L132,22.5 C132,10.0735931 142.073593,0 154.5,0 Z M224.5,0 C236.802143,0 246.798293,9.87312863 246.996986,22.1279214 L247,22.5 L247,27.5 C247,27.8358978 246.992639,28.1700764 246.978071,28.5023834 L246.950831,28.9994211 L247,29 L247,57 L202,57 L202,29 L202.049169,28.9994211 C202.02743,28.6690239 202.012824,28.3366788 202.005501,28.0025382 L202,27.5 L202,22.5 C202,10.0735931 212.073593,0 224.5,0 Z" id="Combined-Shape" fill="url(#radialGradient-1)"></path>
        <g id="rvn" transform="translate(165.000000, 179.000000)">
            <ellipse id="coin-main-inside" stroke="url(#linearGradient-3)" fill="url(#linearGradient-2)" fill-rule="nonzero" transform="translate(13.500000, 18.000000) rotate(90.000000) translate(-13.500000, -18.000000) " cx="13.5" cy="18" rx="17.5" ry="13"></ellipse>
            <ellipse id="textwrapper" transform="translate(14.500000, 17.500000) rotate(90.000000) translate(-14.500000, -17.500000) " cx="14.5" cy="17.5" rx="16.5" ry="12.5"></ellipse>
            <g id="Shape" transform="translate(7.000000, 7.000000)" fill-rule="nonzero">
                <g id="path-5-link" fill="#000000">
                    <path d="M6.50313152,17.4636979 L0,22 L4.12839249,3.54243304 L6.50313152,17.4636979 Z M6.63465553,17.4211035 L10.5949895,17.470797 L4.28183716,3.61342368 L6.63465553,17.4211035 Z M10.9676409,17.1158439 L14,6.19748306 L12.8528184,4.83446274 L10.9676409,17.1158439 Z M9.50626304,0 L4.51565763,3.26556953 L11.8079332,0.972571796 L9.50626304,0 Z M8.87787057,0 L5.77974948,0.0993868986 L5.32672233,1.35592127 L8.87787057,0 Z" id="path-5"></path>
                </g>
                <g id="path-5-link" fill="url(#linearGradient-5)">
                    <path d="M6.50313152,17.4636979 L0,22 L4.12839249,3.54243304 L6.50313152,17.4636979 Z M6.63465553,17.4211035 L10.5949895,17.470797 L4.28183716,3.61342368 L6.63465553,17.4211035 Z M10.9676409,17.1158439 L14,6.19748306 L12.8528184,4.83446274 L10.9676409,17.1158439 Z M9.50626304,0 L4.51565763,3.26556953 L11.8079332,0.972571796 L9.50626304,0 Z M8.87787057,0 L5.77974948,0.0993868986 L5.32672233,1.35592127 L8.87787057,0 Z" id="path-5"></path>
                </g>
            </g>
            <g id="Shape" transform="translate(12.000000, 6.000000)" fill-rule="nonzero">
                <g id="path-8-link" fill="#000000">
                    <path d="M7.71892652,6 L0,4.97494306 L6.9562147,2.85649203 L7.71892652,6 Z M5.88983045,2.0501139 L6.31355939,0.936218686 L4.08898305,0 L5.88983045,2.0501139 Z M6.53248591,0.826879271 L7.03389833,2.5763098 L10,1.81776766 L6.53248591,0.826879271 Z" id="path-8"></path>
                </g>
                <g id="path-8-link" fill="url(#linearGradient-7)">
                    <path d="M7.71892652,6 L0,4.97494306 L6.9562147,2.85649203 L7.71892652,6 Z M5.88983045,2.0501139 L6.31355939,0.936218686 L4.08898305,0 L5.88983045,2.0501139 Z M6.53248591,0.826879271 L7.03389833,2.5763098 L10,1.81776766 L6.53248591,0.826879271 Z" id="path-8"></path>
                </g>
            </g>
            <g id="Shape" transform="translate(11.000000, 5.000000)" fill-rule="nonzero">
                <g id="path-11-link" fill="#000000">
                    <path d="M6.13660252,20 L0,5.69343065 L8,6.86131388 L6.13660252,20 Z M4.69352013,2.10948905 L0.910683007,3.64963504 L0,5.40145986 L4.69352013,2.10948905 Z M2.34676007,0.941605845 L1.40105079,2.02919709 L4.53940455,1.94890512 L2.34676007,0.941605845 Z M4,0.0948905116 L2.50087566,0.817518248 L5.91943956,2.38686132 L4,0.0948905116 Z M5.70928193,0 L4.09807356,0 L6.591944,1.00729927 L5.70928193,0 Z M6.64098074,1.33576642 L6.2556917,2.53284671 L7.02626963,2.91970803 L6.64098074,1.33576642 Z" id="path-11"></path>
                </g>
                <g id="path-11-link" fill="url(#linearGradient-9)">
                    <path d="M6.13660252,20 L0,5.69343065 L8,6.86131388 L6.13660252,20 Z M4.69352013,2.10948905 L0.910683007,3.64963504 L0,5.40145986 L4.69352013,2.10948905 Z M2.34676007,0.941605845 L1.40105079,2.02919709 L4.53940455,1.94890512 L2.34676007,0.941605845 Z M4,0.0948905116 L2.50087566,0.817518248 L5.91943956,2.38686132 L4,0.0948905116 Z M5.70928193,0 L4.09807356,0 L6.591944,1.00729927 L5.70928193,0 Z M6.64098074,1.33576642 L6.2556917,2.53284671 L7.02626963,2.91970803 L6.64098074,1.33576642 Z" id="path-11"></path>
                </g>
            </g>
        </g>
        <g id="rvn-copy" transform="translate(288.000000, 210.000000)">
            <ellipse id="coin-main-inside" stroke="url(#linearGradient-3)" fill="url(#linearGradient-2)" fill-rule="nonzero" transform="translate(13.500000, 18.000000) rotate(90.000000) translate(-13.500000, -18.000000) " cx="13.5" cy="18" rx="17.5" ry="13"></ellipse>
            <ellipse id="textwrapper" transform="translate(14.500000, 17.500000) rotate(90.000000) translate(-14.500000, -17.500000) " cx="14.5" cy="17.5" rx="16.5" ry="12.5"></ellipse>
            <g id="Shape" transform="translate(7.000000, 7.000000)" fill-rule="nonzero">
                <g id="path-5-link" fill="#000000">
                    <path d="M6.50313152,17.4636979 L0,22 L4.12839249,3.54243304 L6.50313152,17.4636979 Z M6.63465553,17.4211035 L10.5949895,17.470797 L4.28183716,3.61342368 L6.63465553,17.4211035 Z M10.9676409,17.1158439 L14,6.19748306 L12.8528184,4.83446274 L10.9676409,17.1158439 Z M9.50626304,0 L4.51565763,3.26556953 L11.8079332,0.972571796 L9.50626304,0 Z M8.87787057,0 L5.77974948,0.0993868986 L5.32672233,1.35592127 L8.87787057,0 Z" id="path-5"></path>
                </g>
                <g id="path-5-link" fill="url(#linearGradient-5)">
                    <path d="M6.50313152,17.4636979 L0,22 L4.12839249,3.54243304 L6.50313152,17.4636979 Z M6.63465553,17.4211035 L10.5949895,17.470797 L4.28183716,3.61342368 L6.63465553,17.4211035 Z M10.9676409,17.1158439 L14,6.19748306 L12.8528184,4.83446274 L10.9676409,17.1158439 Z M9.50626304,0 L4.51565763,3.26556953 L11.8079332,0.972571796 L9.50626304,0 Z M8.87787057,0 L5.77974948,0.0993868986 L5.32672233,1.35592127 L8.87787057,0 Z" id="path-5"></path>
                </g>
            </g>
            <g id="Shape" transform="translate(12.000000, 6.000000)" fill-rule="nonzero">
                <g id="path-8-link" fill="#000000">
                    <path d="M7.71892652,6 L0,4.97494306 L6.9562147,2.85649203 L7.71892652,6 Z M5.88983045,2.0501139 L6.31355939,0.936218686 L4.08898305,0 L5.88983045,2.0501139 Z M6.53248591,0.826879271 L7.03389833,2.5763098 L10,1.81776766 L6.53248591,0.826879271 Z" id="path-8"></path>
                </g>
                <g id="path-8-link" fill="url(#linearGradient-7)">
                    <path d="M7.71892652,6 L0,4.97494306 L6.9562147,2.85649203 L7.71892652,6 Z M5.88983045,2.0501139 L6.31355939,0.936218686 L4.08898305,0 L5.88983045,2.0501139 Z M6.53248591,0.826879271 L7.03389833,2.5763098 L10,1.81776766 L6.53248591,0.826879271 Z" id="path-8"></path>
                </g>
            </g>
            <g id="Shape" transform="translate(11.000000, 5.000000)" fill-rule="nonzero">
                <g id="path-11-link" fill="#000000">
                    <path d="M6.13660252,20 L0,5.69343065 L8,6.86131388 L6.13660252,20 Z M4.69352013,2.10948905 L0.910683007,3.64963504 L0,5.40145986 L4.69352013,2.10948905 Z M2.34676007,0.941605845 L1.40105079,2.02919709 L4.53940455,1.94890512 L2.34676007,0.941605845 Z M4,0.0948905116 L2.50087566,0.817518248 L5.91943956,2.38686132 L4,0.0948905116 Z M5.70928193,0 L4.09807356,0 L6.591944,1.00729927 L5.70928193,0 Z M6.64098074,1.33576642 L6.2556917,2.53284671 L7.02626963,2.91970803 L6.64098074,1.33576642 Z" id="path-11"></path>
                </g>
                <g id="path-11-link" fill="url(#linearGradient-9)">
                    <path d="M6.13660252,20 L0,5.69343065 L8,6.86131388 L6.13660252,20 Z M4.69352013,2.10948905 L0.910683007,3.64963504 L0,5.40145986 L4.69352013,2.10948905 Z M2.34676007,0.941605845 L1.40105079,2.02919709 L4.53940455,1.94890512 L2.34676007,0.941605845 Z M4,0.0948905116 L2.50087566,0.817518248 L5.91943956,2.38686132 L4,0.0948905116 Z M5.70928193,0 L4.09807356,0 L6.591944,1.00729927 L5.70928193,0 Z M6.64098074,1.33576642 L6.2556917,2.53284671 L7.02626963,2.91970803 L6.64098074,1.33576642 Z" id="path-11"></path>
                </g>
            </g>
        </g>
        <g id="rvn-copy-2" transform="translate(228.000000, 290.000000)">
            <ellipse id="coin-main-inside" stroke="url(#linearGradient-3)" fill="url(#linearGradient-2)" fill-rule="nonzero" transform="translate(13.500000, 18.000000) rotate(90.000000) translate(-13.500000, -18.000000) " cx="13.5" cy="18" rx="17.5" ry="13"></ellipse>
            <ellipse id="textwrapper" transform="translate(14.500000, 17.500000) rotate(90.000000) translate(-14.500000, -17.500000) " cx="14.5" cy="17.5" rx="16.5" ry="12.5"></ellipse>
            <g id="Shape" transform="translate(7.000000, 7.000000)" fill-rule="nonzero">
                <g id="path-5-link" fill="#000000">
                    <path d="M6.50313152,17.4636979 L0,22 L4.12839249,3.54243304 L6.50313152,17.4636979 Z M6.63465553,17.4211035 L10.5949895,17.470797 L4.28183716,3.61342368 L6.63465553,17.4211035 Z M10.9676409,17.1158439 L14,6.19748306 L12.8528184,4.83446274 L10.9676409,17.1158439 Z M9.50626304,0 L4.51565763,3.26556953 L11.8079332,0.972571796 L9.50626304,0 Z M8.87787057,0 L5.77974948,0.0993868986 L5.32672233,1.35592127 L8.87787057,0 Z" id="path-5"></path>
                </g>
                <g id="path-5-link" fill="url(#linearGradient-5)">
                    <path d="M6.50313152,17.4636979 L0,22 L4.12839249,3.54243304 L6.50313152,17.4636979 Z M6.63465553,17.4211035 L10.5949895,17.470797 L4.28183716,3.61342368 L6.63465553,17.4211035 Z M10.9676409,17.1158439 L14,6.19748306 L12.8528184,4.83446274 L10.9676409,17.1158439 Z M9.50626304,0 L4.51565763,3.26556953 L11.8079332,0.972571796 L9.50626304,0 Z M8.87787057,0 L5.77974948,0.0993868986 L5.32672233,1.35592127 L8.87787057,0 Z" id="path-5"></path>
                </g>
            </g>
            <g id="Shape" transform="translate(12.000000, 6.000000)" fill-rule="nonzero">
                <g id="path-8-link" fill="#000000">
                    <path d="M7.71892652,6 L0,4.97494306 L6.9562147,2.85649203 L7.71892652,6 Z M5.88983045,2.0501139 L6.31355939,0.936218686 L4.08898305,0 L5.88983045,2.0501139 Z M6.53248591,0.826879271 L7.03389833,2.5763098 L10,1.81776766 L6.53248591,0.826879271 Z" id="path-8"></path>
                </g>
                <g id="path-8-link" fill="url(#linearGradient-7)">
                    <path d="M7.71892652,6 L0,4.97494306 L6.9562147,2.85649203 L7.71892652,6 Z M5.88983045,2.0501139 L6.31355939,0.936218686 L4.08898305,0 L5.88983045,2.0501139 Z M6.53248591,0.826879271 L7.03389833,2.5763098 L10,1.81776766 L6.53248591,0.826879271 Z" id="path-8"></path>
                </g>
            </g>
            <g id="Shape" transform="translate(11.000000, 5.000000)" fill-rule="nonzero">
                <g id="path-11-link" fill="#000000">
                    <path d="M6.13660252,20 L0,5.69343065 L8,6.86131388 L6.13660252,20 Z M4.69352013,2.10948905 L0.910683007,3.64963504 L0,5.40145986 L4.69352013,2.10948905 Z M2.34676007,0.941605845 L1.40105079,2.02919709 L4.53940455,1.94890512 L2.34676007,0.941605845 Z M4,0.0948905116 L2.50087566,0.817518248 L5.91943956,2.38686132 L4,0.0948905116 Z M5.70928193,0 L4.09807356,0 L6.591944,1.00729927 L5.70928193,0 Z M6.64098074,1.33576642 L6.2556917,2.53284671 L7.02626963,2.91970803 L6.64098074,1.33576642 Z" id="path-11"></path>
                </g>
                <g id="path-11-link" fill="url(#linearGradient-9)">
                    <path d="M6.13660252,20 L0,5.69343065 L8,6.86131388 L6.13660252,20 Z M4.69352013,2.10948905 L0.910683007,3.64963504 L0,5.40145986 L4.69352013,2.10948905 Z M2.34676007,0.941605845 L1.40105079,2.02919709 L4.53940455,1.94890512 L2.34676007,0.941605845 Z M4,0.0948905116 L2.50087566,0.817518248 L5.91943956,2.38686132 L4,0.0948905116 Z M5.70928193,0 L4.09807356,0 L6.591944,1.00729927 L5.70928193,0 Z M6.64098074,1.33576642 L6.2556917,2.53284671 L7.02626963,2.91970803 L6.64098074,1.33576642 Z" id="path-11"></path>
                </g>
            </g>
        </g>
    </g>
</svg>