<?xml version="1.0" encoding="UTF-8"?>
<svg width="298px" height="298px" viewBox="0 0 298 298" version="1.1" xmlns="http://www.w3.org/2000/svg" xmlns:xlink="http://www.w3.org/1999/xlink">
    <!-- Generator: Sketch 57.1 (83088) - https://sketch.com -->
    <title>hell naw</title>
    <desc>Created with Sketch.</desc>
    <defs>
        <linearGradient x1="50%" y1="50%" x2="50%" y2="100%" id="linearGradient-1">
            <stop stop-color="#384182" offset="0%"></stop>
            <stop stop-color="#0D142B" offset="100%"></stop>
        </linearGradient>
        <radialGradient cx="65.3544068%" cy="34.6737343%" fx="65.3544068%" fy="34.6737343%" r="70.6399515%" id="radialGradient-2">
            <stop stop-color="#F58B7B" offset="0%"></stop>
            <stop stop-color="#C54330" offset="49.9337067%"></stop>
            <stop stop-color="#70261B" offset="100%"></stop>
        </radialGradient>
    </defs>
    <g id="Page-1" stroke="none" stroke-width="1" fill="none" fill-rule="evenodd">
        <path d="M197.625112,65 C200.639125,65 203.426989,65.6966636 205.988703,67.0899909 L209.264,141.107 L233,161.555085 L233,232 L65,232 L65,107 L82.907,122.426 L85.8975179,67.0899909 C88.777474,65.6966636 91.7244588,65 94.7384722,65 C97.7524856,65 100.540349,65.6966636 103.102064,67.0899909 L106.448,142.707 L117.336,152.086 L117.336449,107 L134.14,121.477 L137.079704,67.0899909 C139.95966,65.6966636 142.906645,65 145.920658,65 C148.934672,65 151.722536,65.6966636 154.28425,67.0899909 L157.585,141.673 L169.672,152.086 L169.672897,107 L185.873,120.957 L188.784158,67.0899909 C191.664114,65.6966636 194.611098,65 197.625112,65 Z" id="Combined-Shape" fill="url(#linearGradient-1)"></path>
        <path d="M149,4 C68.9187113,4 4,68.9187113 4,149 C4,229.081289 68.9187113,294 149,294 C229.081289,294 294,229.081289 294,149 C294,68.9187113 229.081289,4 149,4 Z M84.7088658,242.075346 L242.075346,84.7088658 L244.74401,88.9555527 C255.959544,106.803014 262,127.460741 262,149 C262,211.408177 211.408177,262 149,262 C127.460741,262 106.803014,255.959544 88.9555527,244.74401 L84.7088658,242.075346 Z M149,36 C170.798657,36 191.692273,42.1872077 209.679392,53.657946 L213.879545,56.3364652 L56.3364652,213.879545 L53.657946,209.679392 C42.1872077,191.692273 36,170.798657 36,149 C36,86.5918233 86.5918233,36 149,36 Z" id="hell-naw" stroke="#70261B" stroke-width="8" fill="url(#radialGradient-2)"></path>
    </g>
</svg>