<?xml version="1.0" encoding="UTF-8"?>
<svg width="199px" height="232px" viewBox="0 0 199 232" version="1.1" xmlns="http://www.w3.org/2000/svg" xmlns:xlink="http://www.w3.org/1999/xlink">
    <!-- Generator: Sketch 57.1 (83088) - https://sketch.com -->
    <title>coinau</title>
    <desc>Created with Sketch.</desc>
    <defs>
        <linearGradient x1="19.1271963%" y1="79.5995999%" x2="77.6018105%" y2="19.3617879%" id="linearGradient-1">
            <stop stop-color="#F79534" offset="0%"></stop>
            <stop stop-color="#F0513A" offset="100%"></stop>
        </linearGradient>
        <linearGradient x1="91.3942066%" y1="23.1382386%" x2="6.97214116%" y2="73.2130938%" id="linearGradient-2">
            <stop stop-color="#FFFEFE" offset="0%"></stop>
            <stop stop-color="#3E4889" offset="100%"></stop>
        </linearGradient>
        <path d="M41.8058455,115.89545 L0,146 L26.539666,23.5088738 L41.8058455,115.89545 Z M42.651357,115.612778 L68.110647,115.942562 L27.526096,23.9799935 L42.651357,115.612778 Z M70.506263,113.586964 L90,41.1287512 L82.625261,32.0832527 L70.506263,113.586964 Z M61.111691,0 L29.0292276,21.6715069 L75.908142,6.4543401 L61.111691,0 Z M57.0720251,0 L37.1555324,0.6595676 L34.243215,8.9983866 L57.0720251,0 Z" id="path-3"></path>
        <filter x="-2.2%" y="-0.7%" width="104.4%" height="102.7%" filterUnits="objectBoundingBox" id="filter-4">
            <feOffset dx="0" dy="1" in="SourceAlpha" result="shadowOffsetOuter1"></feOffset>
            <feGaussianBlur stdDeviation="0.5" in="shadowOffsetOuter1" result="shadowBlurOuter1"></feGaussianBlur>
            <feColorMatrix values="0 0 0 0 0   0 0 0 0 0   0 0 0 0 0  0 0 0 0.5 0" type="matrix" in="shadowBlurOuter1"></feColorMatrix>
        </filter>
        <linearGradient x1="25.3124129%" y1="-2.38334827%" x2="64.9987547%" y2="83.9925022%" id="linearGradient-5">
            <stop stop-color="#F79534" offset="0%"></stop>
            <stop stop-color="#F0513A" offset="100%"></stop>
        </linearGradient>
        <linearGradient x1="15.3204677%" y1="-2.38334827%" x2="71.0692845%" y2="83.9925022%" id="linearGradient-6">
            <stop stop-color="#F79534" offset="0%"></stop>
            <stop stop-color="#F0513A" offset="100%"></stop>
        </linearGradient>
        <path d="M34.8058455,115.89545 L-7,146 L19.539666,23.5088738 L34.8058455,115.89545 Z M35.651357,115.612778 L61.110647,115.942562 L20.526096,23.9799935 L35.651357,115.612778 Z M63.506263,113.586964 L83,41.1287512 L75.625261,32.0832527 L63.506263,113.586964 Z M54.111691,0 L22.0292276,21.6715069 L68.908142,6.4543401 L54.111691,0 Z M50.0720251,0 L30.1555324,0.6595676 L27.243215,8.9983866 L50.0720251,0 Z" id="path-7"></path>
        <filter x="-2.2%" y="-0.7%" width="104.4%" height="102.7%" filterUnits="objectBoundingBox" id="filter-8">
            <feOffset dx="0" dy="1" in="SourceAlpha" result="shadowOffsetOuter1"></feOffset>
            <feGaussianBlur stdDeviation="0.5" in="shadowOffsetOuter1" result="shadowBlurOuter1"></feGaussianBlur>
            <feColorMatrix values="0 0 0 0 0   0 0 0 0 0   0 0 0 0 0  0 0 0 0.5 0" type="matrix" in="shadowBlurOuter1"></feColorMatrix>
        </filter>
        <path d="M50.944915,42 L0,34.8246014 L45.911017,19.9954442 L50.944915,42 Z M38.872881,14.3507973 L41.669492,6.5535308 L26.9872881,0 L38.872881,14.3507973 Z M43.114407,5.7881549 L46.423729,18.0341686 L66,12.7243736 L43.114407,5.7881549 Z" id="path-9"></path>
        <filter x="-3.0%" y="-2.4%" width="106.1%" height="109.5%" filterUnits="objectBoundingBox" id="filter-10">
            <feOffset dx="0" dy="1" in="SourceAlpha" result="shadowOffsetOuter1"></feOffset>
            <feGaussianBlur stdDeviation="0.5" in="shadowOffsetOuter1" result="shadowBlurOuter1"></feGaussianBlur>
            <feColorMatrix values="0 0 0 0 0   0 0 0 0 0   0 0 0 0 0  0 0 0 0.5 0" type="matrix" in="shadowBlurOuter1"></feColorMatrix>
        </filter>
        <linearGradient x1="-80.6701559%" y1="39.0455375%" x2="135.616424%" y2="59.5183448%" id="linearGradient-11">
            <stop stop-color="#F79534" offset="0%"></stop>
            <stop stop-color="#F0513A" offset="100%"></stop>
        </linearGradient>
        <linearGradient x1="-19.7509782%" y1="22.9491844%" x2="95.7015553%" y2="73.5044841%" id="linearGradient-12">
            <stop stop-color="#F79534" offset="0%"></stop>
            <stop stop-color="#F0513A" offset="100%"></stop>
        </linearGradient>
        <path d="M43.944915,42 L-7,34.8246014 L38.911017,19.9954442 L43.944915,42 Z M31.872881,14.3507973 L34.669492,6.5535308 L19.9872881,0 L31.872881,14.3507973 Z M36.114407,5.7881549 L39.423729,18.0341686 L59,12.7243736 L36.114407,5.7881549 Z" id="path-13"></path>
        <filter x="-3.0%" y="-2.4%" width="106.1%" height="109.5%" filterUnits="objectBoundingBox" id="filter-14">
            <feOffset dx="0" dy="1" in="SourceAlpha" result="shadowOffsetOuter1"></feOffset>
            <feGaussianBlur stdDeviation="0.5" in="shadowOffsetOuter1" result="shadowBlurOuter1"></feGaussianBlur>
            <feColorMatrix values="0 0 0 0 0   0 0 0 0 0   0 0 0 0 0  0 0 0 0.5 0" type="matrix" in="shadowBlurOuter1"></feColorMatrix>
        </filter>
        <filter x="-2.5%" y="-2.7%" width="105.7%" height="105.4%" filterUnits="objectBoundingBox" id="filter-15">
            <feOffset dx="0" dy="1" in="SourceAlpha" result="shadowOffsetOuter1"></feOffset>
            <feGaussianBlur stdDeviation="0.5" in="shadowOffsetOuter1" result="shadowBlurOuter1"></feGaussianBlur>
            <feColorMatrix values="0 0 0 0 0   0 0 0 0 0   0 0 0 0 0  0 0 0 0.5 0" type="matrix" in="shadowBlurOuter1" result="shadowMatrixOuter1"></feColorMatrix>
            <feMerge>
                <feMergeNode in="shadowMatrixOuter1"></feMergeNode>
                <feMergeNode in="SourceGraphic"></feMergeNode>
            </feMerge>
        </filter>
        <path d="M41.422067,129 L-3.55271368e-15,36.7226277 L54,44.2554745 L41.422067,129 Z M31.6812609,13.6062044 L6.1471103,23.540146 L-3.55271368e-15,34.8394161 L31.6812609,13.6062044 Z M15.8406305,6.0733577 L9.4570928,13.0883212 L30.6409807,12.570438 L15.8406305,6.0733577 Z M27,0.6120438 L16.8809107,5.2729927 L39.956217,15.3952555 L27,0.6120438 Z M38.537653,0 L27.6619965,0 L44.495622,6.4970803 L38.537653,0 Z M44.82662,8.6156934 L42.225919,16.3368613 L47.42732,18.8321168 L44.82662,8.6156934 Z" id="path-16"></path>
        <filter x="-3.7%" y="-0.8%" width="107.4%" height="103.1%" filterUnits="objectBoundingBox" id="filter-17">
            <feOffset dx="0" dy="1" in="SourceAlpha" result="shadowOffsetOuter1"></feOffset>
            <feGaussianBlur stdDeviation="0.5" in="shadowOffsetOuter1" result="shadowBlurOuter1"></feGaussianBlur>
            <feColorMatrix values="0 0 0 0 0   0 0 0 0 0   0 0 0 0 0  0 0 0 0.5 0" type="matrix" in="shadowBlurOuter1"></feColorMatrix>
        </filter>
        <linearGradient x1="45.3082917%" y1="27.8298017%" x2="51.7180373%" y2="50%" id="linearGradient-18">
            <stop stop-color="#FFFFFF" offset="0%"></stop>
            <stop stop-color="#F0513A" offset="100%"></stop>
        </linearGradient>
        <linearGradient x1="35.7078754%" y1="27.8298017%" x2="55.2335741%" y2="50%" id="linearGradient-19">
            <stop stop-color="#FFFFFF" offset="0%"></stop>
            <stop stop-color="#F0513A" offset="100%"></stop>
        </linearGradient>
        <path d="M41.422067,129 L-3.55271368e-15,36.7226277 L54,44.2554745 L41.422067,129 Z M31.6812609,13.6062044 L6.1471103,23.540146 L-3.55271368e-15,34.8394161 L31.6812609,13.6062044 Z M15.8406305,6.0733577 L9.4570928,13.0883212 L30.6409807,12.570438 L15.8406305,6.0733577 Z M27,0.6120438 L16.8809107,5.2729927 L39.956217,15.3952555 L27,0.6120438 Z M38.537653,0 L27.6619965,0 L44.495622,6.4970803 L38.537653,0 Z M44.82662,8.6156934 L42.225919,16.3368613 L47.42732,18.8321168 L44.82662,8.6156934 Z" id="path-20"></path>
        <filter x="-3.7%" y="-0.8%" width="107.4%" height="103.1%" filterUnits="objectBoundingBox" id="filter-21">
            <feOffset dx="0" dy="1" in="SourceAlpha" result="shadowOffsetOuter1"></feOffset>
            <feGaussianBlur stdDeviation="0.5" in="shadowOffsetOuter1" result="shadowBlurOuter1"></feGaussianBlur>
            <feColorMatrix values="0 0 0 0 0   0 0 0 0 0   0 0 0 0 0  0 0 0 0.5 0" type="matrix" in="shadowBlurOuter1"></feColorMatrix>
        </filter>
    </defs>
    <g id="Page-1" stroke="none" stroke-width="1" fill="none" fill-rule="evenodd">
        <g id="coinau" transform="translate(1.000000, 1.000000)">
            <ellipse id="coin-main-inside" stroke="url(#linearGradient-2)" fill="url(#linearGradient-1)" fill-rule="nonzero" transform="translate(98.500000, 115.000000) rotate(90.000000) translate(-98.500000, -115.000000) " cx="98.5" cy="115" rx="115" ry="98.5"></ellipse>
            <g id="Shape" transform="translate(51.000000, 48.000000)" fill-rule="nonzero">
                <g id="path-5-link">
                    <g id="path-5">
                        <use fill="black" fill-opacity="1" filter="url(#filter-4)" xlink:href="#path-3"></use>
                        <use fill="#000000" xlink:href="#path-3"></use>
                    </g>
                </g>
                <g id="path-5-link" transform="translate(7.000000, 0.000000)">
                    <g id="path-5">
                        <use fill="black" fill-opacity="1" filter="url(#filter-8)" xlink:href="#path-7"></use>
                        <use fill="url(#linearGradient-6)" xlink:href="#path-7"></use>
                    </g>
                </g>
            </g>
            <g id="Shape" transform="translate(81.000000, 36.000000)" fill-rule="nonzero">
                <g id="path-8-link">
                    <g id="path-8">
                        <use fill="black" fill-opacity="1" filter="url(#filter-10)" xlink:href="#path-9"></use>
                        <use fill="#000000" xlink:href="#path-9"></use>
                    </g>
                </g>
                <g id="path-8-link" transform="translate(7.000000, 0.000000)">
                    <g id="path-8">
                        <use fill="black" fill-opacity="1" filter="url(#filter-14)" xlink:href="#path-13"></use>
                        <use fill="url(#linearGradient-12)" xlink:href="#path-13"></use>
                    </g>
                </g>
            </g>
            <g id="Shape" filter="url(#filter-15)" transform="translate(22.000000, 35.000000)">
                <g id="path-11-link" transform="translate(56.000000, 0.000000)" fill-rule="nonzero">
                    <g id="path-11">
                        <use fill="black" fill-opacity="1" filter="url(#filter-17)" xlink:href="#path-16"></use>
                        <use fill="#000000" xlink:href="#path-16"></use>
                    </g>
                </g>
                <g id="path-11-link" transform="translate(56.000000, 0.000000)" fill-rule="nonzero">
                    <g id="path-11">
                        <use fill="black" fill-opacity="1" filter="url(#filter-21)" xlink:href="#path-20"></use>
                        <use fill="url(#linearGradient-19)" xlink:href="#path-20"></use>
                    </g>
                </g>
                <text id="🖼" opacity="0.75" font-family="AppleColorEmoji, Apple Color Emoji" font-size="45" font-weight="normal" letter-spacing="-0.75" fill="#384182">
                    <tspan x="0" y="53">🖼</tspan>
                </text>
                <text id="📜" fill="#D91111" opacity="0.75" font-family="AppleColorEmoji, Apple Color Emoji" font-size="45" font-weight="normal" letter-spacing="-0.75">
                    <tspan x="112" y="133">📜</tspan>
                </text>
            </g>
        </g>
    </g>
</svg>